Coordinates
version=1
nRows=10
nColumns=46
inDegrees=yes

Units are S.I. units (second, meters, Newtons, ...)
Angles are in degrees.

endheader
time	pelvis_tilt	pelvis_list	pelvis_rotation	pelvis_tx	pelvis_ty	pelvis_tz	bb_angle	bb_tx	bb_ty	bb_tz	hip_flexion_r	hip_adduction_r	hip_rotation_r	knee_angle_r	knee_angle_r_beta	ankle_angle_r	subtalar_angle_r	mtp_angle_r	crank_angle_r	hip_flexion_l	hip_adduction_l	hip_rotation_l	knee_angle_l	knee_angle_l_beta	ankle_angle_l	subtalar_angle_l	mtp_angle_l	crank_angle_l	lumbar_extension	lumbar_bending	lumbar_rotation	arm_flex_r	arm_add_r	arm_rot_r	elbow_flex_r	pro_sup_r	wrist_flex_r	wrist_dev_r	arm_flex_l	arm_add_l	arm_rot_l	elbow_flex_l	pro_sup_l	wrist_flex_l	wrist_dev_l
      0.00000000	    -16.54738831	     -0.09881614	      4.25575011	      0.20051665	      1.04487528	     -0.24308839	      0.00000000	      0.50000000	      0.00000000	      0.25000000	     48.48854336	     -2.86326233	      5.50913542	     87.62742424	      1.52938707	     27.52228485	     -8.22436253	      0.00000000	      0.00000000	     69.73236132	     -2.30667487	      1.70664395	     66.17948518	      1.15504991	      3.04023693	     -4.85527997	      0.00000000	      0.00000000	    -54.08299656	      0.87307222	     -6.48803353	     83.31035042	    -13.16840568	     32.41564058	     45.03364140	     48.86495579	      0.00000000	      0.00000000	     73.86372703	    -19.33911461	     17.67318095	     65.72879831	     46.78725586	      0.00000000	      0.00000000
      0.00500000	    -16.48809828	     -0.01222268	      4.31720563	      0.20046714	      1.04503219	     -0.24312749	      0.00000000	      0.50000000	      0.00000000	      0.25000000	     48.42092560	     -2.98217333	      5.53439168	     87.63597266	      1.52953627	     27.54511952	     -8.13278146	      0.00000000	      0.00000000	     69.63292228	     -2.19916097	      1.67561929	     66.12632924	      1.15412217	      3.01089888	     -4.84856227	      0.00000000	      0.00000000	    -54.17100853	      0.77354328	     -6.42322826	     82.84550978	    -13.24026720	     31.26359301	     45.89135806	     47.57598305	      0.00000000	      0.00000000	     74.29543892	    -19.12760200	     18.29982183	     65.26071999	     46.20940851	      0.00000000	      0.00000000
      0.01000000	    -16.49912383	     -0.02565155	      4.26455938	      0.20044090	      1.04496300	     -0.24300008	      0.00000000	      0.50000000	      0.00000000	      0.25000000	     48.45065362	     -2.91373976	      5.56560725	     87.64317875	      1.52966204	     27.49847845	     -8.24741040	      0.00000000	      0.00000000	     69.65962252	     -2.27410867	      1.64204893	     66.15884128	      1.15468961	      3.01712586	     -4.85560138	      0.00000000	      0.00000000	    -54.12735089	      0.74088820	     -6.36106857	     83.00004194	    -13.30981208	     31.76076218	     45.60800534	     47.52133764	      0.00000000	      0.00000000	     74.31209010	    -19.05004218	     18.34404732	     65.02245893	     46.16297546	      0.00000000	      0.00000000
      0.01500000	    -16.55440373	     -0.10196329	      4.25398178	      0.20050745	      1.04483072	     -0.24319473	      0.00000000	      0.50000000	      0.00000000	      0.25000000	     48.47568603	     -2.87868308	      5.52685016	     87.63668410	      1.52954868	     27.57066314	     -8.14419246	      0.00000000	      0.00000000	     69.73519979	     -2.28114004	      1.74218981	     66.18961577	      1.15522673	      3.06994577	     -4.86415715	      0.00000000	      0.00000000	    -54.07826665	      0.92728218	     -6.58189296	     83.49600608	    -13.25943069	     33.33484939	     45.26336521	     46.80599354	      0.00000000	      0.00000000	     73.70998917	    -19.41088920	     17.52041331	     66.13510090	     45.94488135	      0.00000000	      0.00000000
      0.02000000	    -16.94496225	     -0.07920251	      4.25226630	      0.20040330	      1.04419546	     -0.24326855	      0.00000000	      0.50000000	      0.00000000	      0.25000000	     48.94436245	     -2.92777091	      5.55415044	     87.73646319	      1.53129016	     27.55075012	     -8.53675929	      0.00000000	      0.00000000	     70.18548409	     -2.23019476	      1.76250602	     66.27304136	      1.15668278	      3.17719042	     -4.90908478	      0.00000000	      0.00000000	    -53.65939924	      0.85156058	     -6.60611540	     82.48803198	    -13.31457070	     31.67617225	     46.92075888	     46.68199430	      0.00000000	      0.00000000	     73.21461929	    -19.10886438	     16.72245504	     66.84005346	     45.90523558	      0.00000000	      0.00000000
      0.02500000	    -16.60763004	     -0.15771559	      4.25847655	      0.20040667	      1.04490901	     -0.24314079	      0.00000000	      0.50000000	      0.00000000	      0.25000000	     48.52714180	     -2.81974162	      5.50009192	     87.63904316	      1.52958986	     27.60983624	     -8.24410111	      0.00000000	      0.00000000	     69.81527348	     -2.30909121	      1.81878716	     66.21528584	      1.15567475	      3.08943644	     -4.83099904	      0.00000000	      0.00000000	    -54.01744898	      0.93324795	     -6.43388249	     83.30512893	    -13.31193773	     32.86053488	     45.54890831	     45.95384656	      0.00000000	      0.00000000	     73.86304835	    -19.30322848	     17.88101796	     65.86657777	     45.57329112	      0.00000000	      0.00000000
      0.03000000	    -16.57759996	     -0.07473903	      4.25354873	      0.20049383	      1.04507717	     -0.24320418	      0.00000000	      0.50000000	      0.00000000	      0.25000000	     48.47756905	     -2.89620758	      5.54850120	     87.63817375	      1.52957468	     27.62159972	     -8.23248443	      0.00000000	      0.00000000	     69.72602307	     -2.25357112	      1.76448110	     66.15640831	      1.15464715	      3.11443160	     -4.90414172	      0.00000000	      0.00000000	    -54.13458838	      0.87474387	     -6.43271615	     82.92653300	    -13.35885033	     31.94634618	     46.39091886	     45.87719885	      0.00000000	      0.00000000	     73.77471079	    -19.14158671	     17.46137599	     66.29155103	     45.56125514	      0.00000000	      0.00000000
      0.03500000	    -16.61284426	     -0.13873368	      4.26204469	      0.20040634	      1.04491442	     -0.24315845	      0.00000000	      0.50000000	      0.00000000	      0.25000000	     48.53589653	     -2.83889759	      5.50350779	     87.66712175	      1.53007992	     27.61597479	     -8.26447819	      0.00000000	      0.00000000	     69.81814774	     -2.28807785	      1.81296675	     66.20702313	      1.15553054	      3.00787343	     -4.86522851	      0.00000000	      0.00000000	    -54.01162656	      0.96703373	     -6.54965057	     83.43340319	    -13.28646207	     33.35163953	     45.40061934	     45.75022801	      0.00000000	      0.00000000	     73.68347657	    -19.39784653	     17.53559136	     66.19946550	     45.53126719	      0.00000000	      0.00000000
      0.04000000	    -16.61346325	     -0.11046619	      4.25424048	      0.20040216	      1.04497033	     -0.24315800	      0.00000000	      0.50000000	      0.00000000	      0.25000000	     48.52824688	     -2.85509853	      5.53238695	     87.64374684	      1.52967195	     27.63477428	     -8.29177196	      0.00000000	      0.00000000	     69.79779782	     -2.26858455	      1.81110037	     66.17747607	      1.15501485	      3.01692186	     -4.85378342	      0.00000000	      0.00000000	    -54.02005066	      0.92259151	     -6.53939278	     83.35781892	    -13.25903645	     33.09524930	     45.50711672	     45.58885270	      0.00000000	      0.00000000	     73.75116296	    -19.36825520	     17.64220327	     66.16884741	     45.47426635	      0.00000000	      0.00000000
      0.04500000	    -16.58902476	     -0.05150238	      4.26124635	      0.20041824	      1.04503131	     -0.24317323	      0.00000000	      0.50000000	      0.00000000	      0.25000000	     48.50806502	     -2.91311598	      5.57233853	     87.68111419	      1.53032413	     27.67116915	     -8.18402219	      0.00000000	      0.00000000	     69.74440196	     -2.22862221	      1.76006829	     66.15159235	      1.15456309	      3.01506235	     -4.91777206	      0.00000000	      0.00000000	    -54.07125982	      0.87754377	     -6.54742412	     83.20516445	    -13.25034676	     32.61082131	     45.82284890	     45.57319432	      0.00000000	      0.00000000	     73.78508310	    -19.34822171	     17.71309991	     66.16009395	     45.48118886	      0.00000000	      0.00000000
